<?xml version="1.0" encoding="UTF-8"?>
<svg width="24px" height="24px" viewBox="0 0 24 24" version="1.1" xmlns="http://www.w3.org/2000/svg" xmlns:xlink="http://www.w3.org/1999/xlink">
    <!-- Generator: Sketch 52.6 (67491) - http://www.bohemiancoding.com/sketch -->
    <title>下载</title>
    <desc>Created with Sketch.</desc>
    <symbol id="Page-1" stroke="none" stroke-width="1" fill="none" fill-rule="evenodd" opacity="0.8">
        <g id="iPhone-8" transform="translate(-116.000000, -499.000000)" fill="#FD1BB8">
            <g id="下载" transform="translate(116.000000, 499.000000)">
                <path d="M23.9976794,19.1885206 L23.9802265,19.1885206 C23.895261,18.5134181 23.3256733,17.9898552 22.6276755,17.9898552 C21.9296543,17.9898552 21.3600666,18.5134415 21.2752418,19.1885206 L21.257789,19.1885206 C21.257789,19.1885206 21.257789,21.2433857 19.2027597,21.2433856 L4.81825879,21.2433856 C2.76334685,21.2433856 2.76334685,19.1885206 2.76334685,19.1885206 L2.74624584,19.1885206 C2.66090503,18.5134181 2.09129382,17.9898552 1.39343683,17.9898552 C0.695415616,17.9898552 0.125851327,18.5134415 0.0404636008,19.1885206 L0.0234329706,19.1885206 C0.0234329706,19.1885206 0.0234329706,19.2343813 0.0278900196,19.3155231 C0.0275146849,19.3306771 0.0234329706,19.3447051 0.0234329706,19.3597418 C0.0234329706,19.4631688 0.0372029119,19.5631944 0.0587140509,19.6597483 C0.203544775,20.8673278 0.951907209,23.9832995 4.81823533,23.9832995 L19.2027597,23.9832995 C22.828712,23.9832995 23.7161579,21.0354759 23.9305656,19.7628 C23.9731435,19.6326027 23.9957711,19.4967111 23.9976794,19.3597418 C23.9976794,19.3364244 23.9918383,19.3145144 23.9908296,19.2915724 C23.99592,19.2262179 23.9976794,19.1885206 23.9976794,19.1885206 Z" id="Path"></path>
                <path d="M3.59826991,11.5300391 L11.1350974,19.0384587 C11.3696628,19.2719338 11.6871777,19.4029616 12.0181332,19.4028579 C12.349078,19.4029425 12.6665786,19.2719172 12.9011455,19.0384587 L20.4383483,11.5302971 C20.9259497,11.0445254 20.9259497,10.2568471 20.4383483,9.77095808 C19.9506061,9.28509252 19.1599251,9.28509252 18.6723002,9.77095808 L13.2807455,15.1413066 L13.2807455,1.24253044 C13.2801817,0.912810944 13.148249,0.596908639 12.9141413,0.36472584 C12.6795289,0.131934872 12.3622214,0.00161079526 12.0317154,0.00229716634 C11.3420219,0.00229716634 10.7828965,0.557458145 10.7828965,1.24253044 L10.7828965,15.169644 L5.36403649,9.77095808 C5.05051811,9.44761071 4.58614023,9.31798088 4.14963067,9.43177644 C3.71298035,9.54561891 3.37206282,9.88526971 3.25779809,10.3202311 C3.1435099,10.7550751 3.27370272,11.2176936 3.59826991,11.5300391 Z" id="Path"></path>
            </g>
        </g>
    </symbol>
    <symbol id="Page-2" stroke="none" stroke-width="1" fill="none" fill-rule="evenodd" opacity="0.8">
        <g id="iPhone-8" transform="translate(-176.000000, -500.000000)" fill="#FD1BB8">
            <g id="分享" transform="translate(176.000000, 500.000000)">
                <path d="M19.6276596,17.4468085 C18.656292,17.4460472 17.7351514,17.8783622 17.1150468,18.6260426 L6.54551489,12.7429447 C6.54932767,12.6770383 6.55531915,12.6116766 6.55531915,12.5446809 C6.55531915,12.4313872 6.54932767,12.319183 6.53788937,12.2086128 L17.4837957,5.74815319 C18.0772104,6.26749459 18.8390809,6.55358316 19.6276596,6.55319148 C21.4325731,6.55319148 22.8957447,5.09001994 22.8957447,3.28510637 C22.8957447,1.48019281 21.4325731,0.017021266 19.6276596,0.017021266 C17.822746,0.017021266 16.3595745,1.48019281 16.3595745,3.28510637 C16.3595745,3.67618723 16.432017,4.0492936 16.5578383,4.3968 L5.95181276,10.656817 C5.34044938,9.79134515 4.34685979,9.27667711 3.28723404,9.27659576 C1.48232048,9.27659576 0.0191489362,10.7397673 0.0191489362,12.5446809 C0.0191489362,14.3495944 1.48232048,15.812766 3.28723404,15.812766 C4.39344928,15.8129264 5.42439637,15.2525488 6.02588936,14.3241532 L16.4178553,20.1086638 C16.3796006,20.3084858 16.360089,20.5114435 16.3595745,20.7148936 C16.3595745,22.5198072 17.822746,23.9829787 19.6276596,23.9829787 C21.4325731,23.9829787 22.8957447,22.5198072 22.8957447,20.7148936 C22.8957447,18.9099801 21.4325731,17.4468085 19.6276596,17.4468085 Z" id="Path"></path>
            </g>
        </g>
    </symbol>
</svg>